<svg width="1058" height="1037" viewBox="0 0 1058 1037" fill="none" xmlns="http://www.w3.org/2000/svg">
<rect x="662.239" y="586.081" width="156.291" height="137.133" rx="20.1666" transform="rotate(49.3506 662.239 586.081)" fill="#5BCCF6"/>
<ellipse cx="661.118" cy="488.033" rx="75.1206" ry="74.1122" transform="rotate(49.3506 661.118 488.033)" fill="white"/>
<path d="M589.082 598.392C573.871 611.452 550.807 609.537 537.566 594.115C524.325 578.694 525.921 555.605 541.132 542.545C556.342 529.485 579.407 531.4 592.648 546.822C605.889 562.244 604.292 585.333 589.082 598.392Z" fill="#030E12"/>
<path d="M798.996 640.104C778.292 657.88 746.364 654.651 727.681 632.891C708.998 611.132 710.636 579.082 731.339 561.306C752.043 543.53 783.971 546.76 802.654 568.519C821.337 590.279 819.699 622.328 798.996 640.104Z" fill="#030E12"/>
<path d="M590.908 818.769C570.204 836.545 538.276 833.315 519.593 811.556C500.91 789.796 502.548 757.746 523.252 739.971C543.955 722.195 575.883 725.424 594.566 747.184C613.249 768.943 611.611 800.993 590.908 818.769Z" fill="#030E12"/>
<path d="M587.604 401.639C566.901 419.415 534.972 416.186 516.29 394.426C497.607 372.667 499.245 340.617 519.948 322.841C540.651 305.065 572.58 308.295 591.263 330.054C609.945 351.814 608.307 383.863 587.604 401.639Z" fill="#030E12"/>
<path d="M387.167 573.735C366.463 591.511 334.535 588.282 315.852 566.522C297.169 544.763 298.807 512.713 319.511 494.937C340.214 477.161 372.142 480.391 390.825 502.15C409.508 523.91 407.87 555.959 387.167 573.735Z" fill="#030E12"/>
<ellipse cx="469.861" cy="652.247" rx="75.1206" ry="74.1122" transform="rotate(49.3506 469.861 652.247)" fill="white"/>
<ellipse cx="329.165" cy="291.274" rx="75.1206" ry="74.1122" transform="rotate(49.3506 329.165 291.274)" fill="white"/>
<ellipse cx="807.165" cy="839.273" rx="75.1206" ry="74.1122" transform="rotate(49.3506 807.165 839.273)" fill="white"/>
<rect x="458.498" y="341.048" width="156.291" height="137.133" rx="20.1666" transform="rotate(49.3506 458.498 341.048)" fill="#5BCCF6"/>
<rect x="795.159" y="282" width="124.584" height="122.786" rx="20.1666" transform="rotate(49.3506 795.159 282)" fill="#5BCCF6"/>
<rect x="334.842" y="679" width="124.584" height="121.05" rx="20.1666" transform="rotate(49.3506 334.842 679)" fill="#5BCCF6"/>
</svg>
